<svg width="25" height="25" viewBox="0 0 25 25" fill="none" xmlns="http://www.w3.org/2000/svg">
<path d="M9.52472 7.0332C9.60036 7.0332 9.66276 7.05032 9.72198 7.0918L9.78058 7.1416L14.7249 12.0859C14.7521 12.1131 14.7719 12.1373 14.7864 12.1582L14.8157 12.21V12.2109C14.8305 12.2465 14.8392 12.2863 14.8392 12.335C14.8392 12.3595 14.8374 12.3817 14.8333 12.4023L14.8157 12.459V12.46C14.8099 12.4739 14.8007 12.4912 14.7864 12.5117L14.7249 12.584L9.75616 17.5527C9.67839 17.6305 9.61125 17.6524 9.53058 17.6494L9.46222 17.6416C9.41783 17.632 9.37565 17.6133 9.33331 17.583L9.26984 17.5283C9.19171 17.4502 9.16046 17.3734 9.16046 17.2725C9.16046 17.1968 9.17754 17.1344 9.21906 17.0752L9.26984 17.0166L13.9515 12.335L9.24445 7.62793C9.18632 7.56978 9.15922 7.51811 9.1507 7.46191L9.14777 7.40332C9.15035 7.3328 9.16898 7.26944 9.21417 7.20605L9.26984 7.1416C9.34776 7.06379 9.42413 7.03328 9.52472 7.0332Z" fill="white" stroke="white"/>
</svg>
