<svg width="25" height="25" viewBox="0 0 25 25" fill="none" xmlns="http://www.w3.org/2000/svg">
<path d="M17.7373 6.13361C17.9016 6.13361 18.0036 6.18211 18.084 6.26251C18.1642 6.34282 18.2128 6.44431 18.2129 6.60822C18.2129 6.73162 18.1853 6.82014 18.1377 6.89044L18.084 6.9549L12.8301 12.2088L13.1836 12.5623L18.084 17.4617C18.1644 17.5421 18.2129 17.6443 18.2129 17.8084C18.2129 17.9727 18.1644 18.0747 18.084 18.1551C18.0036 18.2355 17.9016 18.284 17.7373 18.284C17.5731 18.284 17.471 18.2355 17.3906 18.1551L12.4912 13.2547L12.1377 12.9012L6.88379 18.1551C6.8034 18.2354 6.70131 18.284 6.53711 18.284C6.3732 18.2839 6.27171 18.2353 6.19141 18.1551C6.111 18.0747 6.0625 17.9727 6.0625 17.8084C6.06253 17.6854 6.08936 17.5973 6.13672 17.5272L6.19141 17.4617L11.4443 12.2088L11.0908 11.8553L6.19141 6.9549C6.111 6.87449 6.0625 6.77249 6.0625 6.60822C6.06258 6.44417 6.11107 6.34285 6.19141 6.26251C6.27175 6.18217 6.37307 6.13368 6.53711 6.13361C6.66036 6.13361 6.74908 6.16033 6.81934 6.20782L6.88379 6.26251L11.7842 11.1619L12.1377 11.5154L17.3906 6.26251C17.471 6.18214 17.5731 6.13364 17.7373 6.13361Z" fill="#0C0A01" stroke="#0C0A01"/>
</svg>
