<svg width="1014" height="513" viewBox="0 0 1014 513" fill="none" xmlns="http://www.w3.org/2000/svg">
<path d="M1000.33 512.676H13.9467C10.322 512.673 6.84701 511.421 4.28399 509.196C1.72097 506.971 0.279298 503.954 0.275269 500.807L0.275269 12.0791C0.278962 8.93205 1.72049 5.91477 4.28354 3.68934C6.8466 1.46392 10.3218 0.212117 13.9467 0.208618H1000.33C1003.95 0.212408 1007.43 1.46415 1009.99 3.68927C1012.55 5.9144 1014 8.93123 1014 12.078V500.807C1014 503.954 1012.55 506.97 1009.99 509.196C1007.43 511.421 1003.95 512.672 1000.33 512.676Z" fill="#090814"/>
<path d="M985 15H30C23.3726 15 18 20.3726 18 27V487C18 493.627 23.3726 499 30 499H985C991.627 499 997 493.627 997 487V27C997 20.3726 991.627 15 985 15Z" fill="#FDF2CE"/>
<path opacity="0.1" d="M785.096 55.782V459.02H83.2403V55.782H785.096Z" fill="white" stroke="black"/>
<path d="M759.529 442.087H98.4374C97.8889 442.087 97.363 441.856 96.9751 441.445C96.5873 441.034 96.3694 440.477 96.3694 439.896V104.264C96.3694 103.683 96.5874 103.126 96.9755 102.715C97.3635 102.304 97.8898 102.073 98.4386 102.073C98.9873 102.073 99.5136 102.304 99.9017 102.715C100.29 103.126 100.508 103.683 100.508 104.264V437.706H759.529C760.078 437.706 760.604 437.937 760.993 438.348C761.381 438.759 761.599 439.316 761.599 439.897C761.599 440.479 761.381 441.036 760.993 441.447C760.604 441.858 760.078 442.089 759.529 442.089V442.087Z" fill="#090814"/>
<path d="M239.683 417.981H179.554C177.926 417.979 176.365 417.293 175.214 416.074C174.063 414.855 173.415 413.201 173.413 411.477V323.678C173.415 321.953 174.063 320.3 175.214 319.081C176.365 317.861 177.926 317.175 179.554 317.173H239.683C241.312 317.175 242.872 317.861 244.024 319.081C245.175 320.3 245.822 321.953 245.824 323.678V411.477C245.822 413.201 245.175 414.855 244.024 416.074C242.872 417.293 241.312 417.979 239.683 417.981Z" fill="#0C0A01"/>
<path d="M349.348 417.981H289.198C287.57 417.98 286.009 417.294 284.858 416.074C283.707 414.855 283.059 413.201 283.057 411.477V240.401C283.059 238.676 283.707 237.023 284.858 235.804C286.009 234.584 287.57 233.898 289.198 233.896H349.348C350.976 233.898 352.537 234.584 353.688 235.804C354.84 237.023 355.487 238.676 355.489 240.401V411.477C355.487 413.201 354.84 414.855 353.688 416.074C352.537 417.294 350.976 417.98 349.348 417.981Z" fill="#0C0A01"/>
<path d="M458.989 417.981H398.86C397.232 417.979 395.671 417.293 394.52 416.074C393.369 414.855 392.721 413.201 392.719 411.477V323.678C392.721 321.953 393.369 320.3 394.52 319.081C395.671 317.861 397.232 317.175 398.86 317.173H458.989C460.617 317.175 462.178 317.861 463.329 319.081C464.481 320.3 465.128 321.953 465.13 323.678V411.477C465.128 413.201 464.481 414.855 463.329 416.074C462.178 417.293 460.617 417.979 458.989 417.981Z" fill="#0C0A01"/>
<path d="M568.642 417.982H508.512C506.921 418.017 505.382 417.384 504.231 416.22C503.08 415.056 502.411 413.456 502.372 411.771V207.233C502.411 205.548 503.08 203.948 504.231 202.784C505.382 201.62 506.921 200.987 508.512 201.022H568.642C570.233 200.987 571.772 201.62 572.923 202.784C574.074 203.948 574.743 205.548 574.782 207.233V411.768C574.743 413.453 574.074 415.053 572.923 416.217C571.772 417.381 570.233 418.015 568.642 417.979V417.982Z" fill="#0C0A01"/>
<path d="M678.292 417.979H618.163C616.535 417.977 614.974 417.291 613.822 416.072C612.671 414.853 612.024 413.199 612.022 411.475V148.36C612.024 146.636 612.671 144.982 613.822 143.763C614.974 142.543 616.535 141.857 618.163 141.855H678.292C679.92 141.857 681.481 142.543 682.632 143.763C683.783 144.982 684.431 146.636 684.433 148.36V411.477C684.43 413.201 683.782 414.854 682.631 416.073C681.48 417.292 679.919 417.977 678.292 417.979Z" fill="#0C0A01"/>
<path d="M209.617 290.871C216.473 290.871 222.03 284.984 222.03 277.723C222.03 270.462 216.473 264.575 209.617 264.575C202.762 264.575 197.205 270.462 197.205 277.723C197.205 284.984 202.762 290.871 209.617 290.871Z" fill="#090814"/>
<path d="M319.27 205.406C326.125 205.406 331.682 199.519 331.682 192.258C331.682 184.997 326.125 179.11 319.27 179.11C312.415 179.11 306.857 184.997 306.857 192.258C306.857 199.519 312.415 205.406 319.27 205.406Z" fill="#090814"/>
<path d="M428.923 290.871C435.778 290.871 441.335 284.984 441.335 277.723C441.335 270.462 435.778 264.575 428.923 264.575C422.068 264.575 416.511 270.462 416.511 277.723C416.511 284.984 422.068 290.871 428.923 290.871Z" fill="#090814"/>
<path d="M538.576 163.767C545.431 163.767 550.989 157.88 550.989 150.619C550.989 143.358 545.431 137.471 538.576 137.471C531.721 137.471 526.164 143.358 526.164 150.619C526.164 157.88 531.721 163.767 538.576 163.767Z" fill="#090814"/>
<path d="M648.229 115.552C655.084 115.552 660.641 109.666 660.641 102.405C660.641 95.1434 655.084 89.257 648.229 89.257C641.374 89.257 635.817 95.1434 635.817 102.405C635.817 109.666 641.374 115.552 648.229 115.552Z" fill="#090814"/>
<path d="M429.187 280.671L319.275 193.468L210.865 279.479L208.385 275.972L319.278 187.988L428.667 274.777L537.373 148.772L537.807 148.584L647.46 101.787L649.008 105.852L539.791 152.464L429.187 280.671Z" fill="#090814"/>
<path fill-rule="evenodd" clip-rule="evenodd" d="M870.598 150.011C843.829 150.011 822.131 128.313 822.131 101.544C822.131 74.7746 843.829 53.0764 870.598 53.0764C897.367 53.0764 919.066 74.7746 919.066 101.544C919.066 128.313 897.367 150.011 870.598 150.011ZM886.459 85.4616C884.106 79.488 878.214 78.9488 871.35 80.2817L868.905 71.7605L863.719 73.2479L866.097 81.5479C864.734 81.9356 863.35 82.3627 861.971 82.7898L859.578 74.4353L854.392 75.9196L856.834 84.4408C855.716 84.7861 854.622 85.1223 853.544 85.4313L853.538 85.4071L846.383 87.4548L847.973 92.9952C847.973 92.9952 851.781 91.8229 851.739 91.9138C853.838 91.3079 854.874 92.3348 855.374 93.3284L858.161 103.037C858.303 102.998 858.494 102.946 858.718 102.916L858.17 103.073L862.068 116.674C862.165 117.362 862.077 118.528 860.611 118.952C860.693 118.992 856.84 120.031 856.84 120.031L857.585 126.522L864.337 124.584C865.591 124.226 866.833 123.893 868.051 123.554L870.523 132.172L875.703 130.688L873.261 122.16C874.65 121.792 876.034 121.408 877.414 121.009L879.847 129.5L885.033 128.013L882.57 119.41C891.145 116.408 896.619 112.461 895.029 104.052C893.751 97.2846 889.804 95.2308 884.512 95.461C887.08 93.0679 888.189 89.8297 886.459 85.4616ZM884.487 105.969C886.335 112.412 875.097 114.842 871.583 115.854L868.311 104.433C871.825 103.425 882.561 99.2505 884.487 105.969ZM877.454 90.5506C879.132 96.4121 869.738 98.366 866.812 99.2051L863.843 88.8482C866.77 88.0091 875.7 84.4408 877.454 90.5506Z" fill="black"/>
<path fill-rule="evenodd" clip-rule="evenodd" d="M870.598 277.781C843.829 277.781 822.131 256.083 822.131 229.314C822.131 202.545 843.829 180.847 870.598 180.847C897.367 180.847 919.066 202.545 919.066 229.314C919.066 256.083 897.367 277.781 870.598 277.781ZM894.814 229.977L872.107 192.963L849.394 229.98L872.107 243.166L894.814 229.977ZM894.832 234.209L872.107 247.389L849.394 234.212L872.107 265.649L894.832 234.209Z" fill="black"/>
<path d="M872.107 192.964V219.833L894.817 229.98L872.107 192.964ZM872.107 247.392V265.649L894.832 234.209L872.107 247.392Z" fill="black" fill-opacity="0.298"/>
<path d="M872.107 243.166L894.817 229.98L872.107 219.838V243.166Z" fill="black" fill-opacity="0.801"/>
<path d="M849.394 229.98L872.107 243.166V219.838L849.394 229.98Z" fill="black" fill-opacity="0.298"/>
<path fill-rule="evenodd" clip-rule="evenodd" d="M870.598 405.551C843.829 405.551 822.131 383.853 822.131 357.084C822.131 330.315 843.829 308.617 870.598 308.617C897.367 308.617 919.066 330.315 919.066 357.084C919.066 383.853 897.367 405.551 870.598 405.551ZM876.421 350.399V343.231H892.821V332.302H848.167V343.231H864.567V350.396C851.239 351.007 841.215 353.649 841.215 356.811C841.215 359.974 851.239 362.612 864.567 363.227V386.195H876.421V363.221C889.728 362.609 899.727 359.971 899.727 356.811C899.727 353.652 889.728 351.014 876.421 350.399ZM876.421 361.273V361.267C876.087 361.292 874.37 361.395 870.538 361.395C867.478 361.395 865.325 361.304 864.567 361.267V361.276C852.79 360.758 843.999 358.708 843.999 356.254C843.999 353.803 852.79 351.753 864.567 351.226V359.235C865.337 359.289 867.542 359.42 870.589 359.42C874.246 359.42 876.078 359.268 876.421 359.238V351.232C888.174 351.756 896.943 353.806 896.943 356.254C896.943 358.708 888.174 360.752 876.421 361.273Z" fill="black"/>
</svg>
