<svg width="49" height="49" viewBox="0 0 49 49" fill="none" xmlns="http://www.w3.org/2000/svg">
<path d="M7.30261 23.2478C6.82194 23.2478 6.41794 23.0841 6.09061 22.7568C5.76328 22.4295 5.59961 22.0255 5.59961 21.5448V7.84131C5.59961 7.36064 5.76328 6.95664 6.09061 6.62931C6.41794 6.30197 6.82194 6.13831 7.30261 6.13831H21.0061C21.4868 6.13831 21.8908 6.30197 22.2181 6.62931C22.5454 6.95664 22.7091 7.36064 22.7091 7.84131V21.5448C22.7091 22.0255 22.5454 22.4295 22.2181 22.7568C21.8908 23.0841 21.4868 23.2478 21.0061 23.2478H7.30261ZM27.2691 23.2478C26.7884 23.2478 26.3844 23.0841 26.0571 22.7568C25.7298 22.4295 25.5661 22.0255 25.5661 21.5448V7.84131C25.5661 7.36064 25.7298 6.95664 26.0571 6.62931C26.3844 6.30197 26.7884 6.13831 27.2691 6.13831H40.9726C41.4533 6.13831 41.8573 6.30197 42.1846 6.62931C42.5119 6.95664 42.6756 7.36064 42.6756 7.84131V21.5448C42.6756 22.0255 42.5119 22.4295 42.1846 22.7568C41.8573 23.0841 41.4533 23.2478 40.9726 23.2478H27.2691ZM7.30261 43.2143C6.82194 43.2143 6.41794 43.0506 6.09061 42.7233C5.76328 42.396 5.59961 41.992 5.59961 41.5113V27.8078C5.59961 27.3271 5.76328 26.9231 6.09061 26.5958C6.41794 26.2685 6.82194 26.1048 7.30261 26.1048H21.0061C21.4868 26.1048 21.8908 26.2685 22.2181 26.5958C22.5454 26.9231 22.7091 27.3271 22.7091 27.8078V41.5113C22.7091 41.992 22.5454 42.396 22.2181 42.7233C21.8908 43.0506 21.4868 43.2143 21.0061 43.2143H7.30261ZM34.1181 43.2143C33.6268 43.2143 33.2194 43.0506 32.8961 42.7233C32.5731 42.396 32.4116 41.992 32.4116 41.5113V36.3688H27.2191C26.7634 36.3688 26.3739 36.2023 26.0506 35.8693C25.7276 35.5363 25.5661 35.1281 25.5661 34.6448C25.5661 34.1615 25.7298 33.7581 26.0571 33.4348C26.3844 33.1118 26.7884 32.9503 27.2691 32.9503H32.4116V27.7578C32.4116 27.3021 32.5781 26.9126 32.9111 26.5893C33.2441 26.2663 33.6523 26.1048 34.1356 26.1048C34.6189 26.1048 35.0221 26.2685 35.3451 26.5958C35.6684 26.9231 35.8301 27.3271 35.8301 27.8078V32.9503H41.0226C41.4783 32.9503 41.8678 33.1168 42.1911 33.4498C42.5141 33.7828 42.6756 34.187 42.6756 34.6623C42.6756 35.1536 42.5119 35.5608 42.1846 35.8838C41.8573 36.2071 41.4533 36.3688 40.9726 36.3688H35.8301V41.5613C35.8301 42.017 35.6636 42.4065 35.3306 42.7298C34.9976 43.0528 34.5934 43.2143 34.1181 43.2143ZM28.9841 9.54481V19.8298H39.2691V9.54481H28.9841ZM9.01811 9.54481V19.8298H19.3026V9.54481H9.01811ZM9.01811 29.5113V39.7958H19.3026V29.5113H9.01811Z" fill="#0C0A01"/>
</svg>
