<svg width="25" height="25" viewBox="0 0 25 25" fill="none" xmlns="http://www.w3.org/2000/svg">
<path fill-rule="evenodd" clip-rule="evenodd" d="M16.1376 3.60352H8.13763C5.37621 3.60352 3.13763 5.8421 3.13763 8.60352V16.6035C3.13763 19.3649 5.37621 21.6035 8.13763 21.6035H16.1376C18.899 21.6035 21.1376 19.3649 21.1376 16.6035V8.60352C21.1376 5.8421 18.899 3.60352 16.1376 3.60352ZM19.3876 16.6035C19.3821 18.3961 17.9302 19.848 16.1376 19.8535H8.13763C6.34498 19.848 4.89312 18.3961 4.88763 16.6035V8.60352C4.89312 6.81087 6.34498 5.35901 8.13763 5.35352H16.1376C17.9302 5.35901 19.3821 6.81087 19.3876 8.60352V16.6035ZM16.8876 8.85352C17.4399 8.85352 17.8876 8.4058 17.8876 7.85352C17.8876 7.30124 17.4399 6.85352 16.8876 6.85352C16.3353 6.85352 15.8876 7.30124 15.8876 7.85352C15.8876 8.4058 16.3353 8.85352 16.8876 8.85352ZM12.1376 8.10352C9.65235 8.10352 7.63763 10.1182 7.63763 12.6035C7.63763 15.0888 9.65235 17.1035 12.1376 17.1035C14.6229 17.1035 16.6376 15.0888 16.6376 12.6035C16.6403 11.4092 16.167 10.2631 15.3225 9.4186C14.478 8.57411 13.3319 8.10086 12.1376 8.10352ZM9.38763 12.6035C9.38763 14.1223 10.6188 15.3535 12.1376 15.3535C13.6564 15.3535 14.8876 14.1223 14.8876 12.6035C14.8876 11.0847 13.6564 9.85352 12.1376 9.85352C10.6188 9.85352 9.38763 11.0847 9.38763 12.6035Z" fill="white"/>
</svg>
