<svg width="25" height="25" viewBox="0 0 25 25" fill="none" xmlns="http://www.w3.org/2000/svg">
<path fill-rule="evenodd" clip-rule="evenodd" d="M4.63763 3.60352C3.8092 3.60352 3.13763 4.27509 3.13763 5.10352V20.1035C3.13763 20.9319 3.8092 21.6035 4.63763 21.6035H19.6376C20.466 21.6035 21.1376 20.9319 21.1376 20.1035V5.10352C21.1376 4.27509 20.466 3.60352 19.6376 3.60352H4.63763ZM8.65839 7.60624C8.66402 8.56249 7.94824 9.15171 7.09886 9.14749C6.2987 9.14327 5.6012 8.50624 5.60542 7.60765C5.60964 6.76249 6.27761 6.08327 7.14527 6.10296C8.02558 6.12265 8.66402 6.76812 8.65839 7.60624ZM12.4173 10.3653H9.89734H9.89593V18.9251H12.5593V18.7254C12.5593 18.3455 12.559 17.9655 12.5587 17.5854C12.5579 16.5716 12.557 15.5567 12.5622 14.5432C12.5636 14.2971 12.5748 14.0412 12.6381 13.8063C12.8757 12.9288 13.6647 12.3621 14.545 12.5014C15.1103 12.5899 15.4843 12.9176 15.6418 13.4506C15.7389 13.7838 15.7825 14.1424 15.7867 14.4898C15.7981 15.5374 15.7965 16.585 15.7949 17.6327C15.7943 18.0025 15.7937 18.3725 15.7937 18.7423V18.9237H18.4656V18.7184C18.4656 18.2664 18.4654 17.8145 18.4651 17.3626C18.4646 16.2331 18.464 15.1036 18.467 13.9737C18.4684 13.4632 18.4136 12.9598 18.2884 12.4662C18.1014 11.7321 17.7147 11.1246 17.0861 10.6859C16.6403 10.3737 16.1509 10.1726 15.6039 10.1501C15.5416 10.1475 15.4788 10.1441 15.4157 10.1407C15.136 10.1256 14.8517 10.1102 14.5843 10.1642C13.8193 10.3175 13.1472 10.6676 12.6395 11.2849C12.5805 11.3557 12.5228 11.4276 12.4367 11.5349L12.4173 11.5592V10.3653ZM5.81927 18.9279H8.47005V10.3708H5.81927V18.9279Z" fill="white"/>
</svg>
