<svg width="33" height="33" viewBox="0 0 33 33" fill="none" xmlns="http://www.w3.org/2000/svg">
<path d="M16.1378 3.32129C18.7089 3.32134 20.9885 4.16179 22.9933 5.8584L23.3907 6.20898C25.4613 8.11377 26.5117 10.6714 26.5118 13.9375C26.5118 15.1092 26.2857 16.2793 25.8282 17.4492L25.6183 17.9512C25.0086 19.3136 24.2431 20.6175 23.3224 21.8643C22.5115 22.9624 21.6398 23.9969 20.7062 24.9668L20.3019 25.3779C19.2027 26.4778 18.1771 27.4516 17.2257 28.2988L17.2208 28.3037L17.215 28.3086C17.076 28.4401 16.916 28.5353 16.7296 28.5957C16.519 28.664 16.3186 28.6963 16.1271 28.6963C15.9357 28.6963 15.7401 28.6639 15.5382 28.5967C15.36 28.5374 15.2072 28.4442 15.0743 28.3145L15.0656 28.3057L15.0558 28.2979L14.3253 27.6387C13.8294 27.1837 13.3159 26.6968 12.7843 26.1787L11.9728 25.3779C10.8858 24.2905 9.87895 23.1191 8.95227 21.8643C8.1469 20.7737 7.46182 19.639 6.89661 18.46L6.66125 17.9512C6.06537 16.6139 5.77161 15.2769 5.77161 13.9375C5.7717 10.8753 6.69348 8.43566 8.51282 6.57324L8.88879 6.20898C10.9855 4.27768 13.3953 3.32129 16.1378 3.32129ZM16.1368 4.60059C13.7578 4.60068 11.708 5.36896 10.0138 6.9043L9.67981 7.22168C7.9152 8.9765 7.04319 11.2297 7.04309 13.9375C7.04309 15.669 7.72162 17.5531 9.01184 19.5771L9.27844 19.9844C10.7418 22.1638 12.9198 24.5922 15.797 27.2686L16.1329 27.582L16.4738 27.2725C19.2346 24.7677 21.3396 22.4757 22.7726 20.3965L23.0499 19.9834C24.4789 17.8016 25.2325 15.7812 25.2325 13.9375C25.2325 11.3988 24.4652 9.26007 22.9152 7.55664L22.5948 7.22168C20.8379 5.47508 18.6746 4.60059 16.1368 4.60059ZM16.1349 11.7979C16.6005 11.7979 16.9943 11.9375 17.3361 12.2217L17.4796 12.3516C17.8528 12.7232 18.0343 13.1608 18.0343 13.6924C18.0343 14.1581 17.8961 14.5511 17.6124 14.8906L17.4816 15.0322C17.1102 15.403 16.6731 15.584 16.1407 15.584C15.6076 15.584 15.1697 15.4041 14.799 15.0352H14.7999C14.4299 14.6665 14.2482 14.2307 14.2482 13.6982C14.2482 13.1652 14.4283 12.7253 14.798 12.3516L14.799 12.3525C15.1678 11.9802 15.6034 11.7979 16.1349 11.7979Z" fill="white" stroke="white"/>
</svg>
