<svg width="390" height="108" viewBox="0 0 390 108" fill="none" xmlns="http://www.w3.org/2000/svg">
<path d="M90.8155 0.616211L74.1812 24.9149H81.5957V107.643H100.035V24.9149H107.449L90.8155 0.616211Z" fill="white"/>
<path d="M53.9352 29.8322L37.302 54.1297H44.7142V107.643H63.155V54.1297H70.5684L53.9352 29.8322Z" fill="white"/>
<path d="M17.0536 54.1298L0.421631 78.4273H7.83504V107.643H26.2746V78.4273H33.6892L17.0536 54.1298Z" fill="white"/>
<path d="M127.728 63.8905C127.728 73.5772 134.961 77.7102 141.935 77.7102C151.363 77.7102 158.984 70.2192 161.05 62.4698L161.438 60.9199C162.6 57.1744 167.12 58.4659 166.087 62.0823L165.829 63.8905C162.987 74.3522 153.817 82.8765 141.935 82.8765C131.602 82.8765 122.432 76.5478 122.432 63.8905C122.432 60.7908 122.949 57.5619 126.695 43.8713C128.89 35.9927 133.669 29.9224 142.193 29.9224C150.718 29.9224 154.98 35.2178 154.98 42.5797C154.98 43.8713 154.721 45.4212 154.334 47.1002C153.688 49.6833 148.651 48.9084 149.555 45.6795C149.684 44.5171 149.814 43.4838 149.814 42.7089C149.814 37.9301 147.23 34.9595 142.193 34.9595C136.123 34.9595 133.023 39.8674 131.473 45.292C127.986 58.0785 127.728 60.9199 127.728 63.8905ZM172.545 83.0057C160.534 83.0057 158.725 70.7358 160.921 61.9532L168.541 33.0221C169.445 29.7932 174.612 30.5682 173.578 34.1845L166.087 63.3739C164.796 68.9276 165.054 77.8394 172.545 77.8394C179.907 77.8394 183.136 67.7652 184.298 62.2115L191.66 33.1513C192.435 29.6641 197.601 30.439 196.697 34.3137L183.911 85.8471C181.715 94.6297 176.678 105.091 166.733 105.091C162.858 105.091 159.759 103.929 157.434 101.475C155.367 99.1502 158.725 95.2755 160.921 97.7295C162.471 99.2794 164.537 99.9252 166.733 99.9252C174.224 99.9252 177.453 90.2384 178.874 84.8139L179.907 80.5517C177.711 81.9724 175.128 83.0057 172.545 83.0057ZM196.181 101.604L212.713 33.1513C213.617 30.0515 218.266 30.1807 216.717 34.1845C218.912 31.8597 222.787 29.9224 226.532 29.9224C238.544 29.9224 240.74 41.4173 238.286 51.2332L235.315 63.7614C233.119 72.0274 227.695 83.0057 217.879 83.0057C212.584 83.0057 209.613 80.5517 207.417 77.7102C205.351 85.9763 203.026 94.5006 201.089 102.767C200.314 106.125 195.277 104.962 196.181 101.604ZM214.908 45.6795L210.904 63.3739C209.613 69.3151 209.742 77.8394 217.879 77.8394C225.112 77.8394 228.728 68.2818 230.278 62.3406L233.119 50.0708C234.669 43.8713 234.669 34.9595 226.532 34.9595C219.945 34.9595 216.2 40.9007 214.908 45.6795ZM285.04 81.7141C275.999 81.7141 272.512 74.8688 272.512 67.8944C272.512 58.8534 277.033 50.9749 277.033 42.4506C277.033 38.4467 275.224 34.9595 269.412 34.9595C265.667 34.9595 260.759 38.3175 258.951 45.292L250.685 79.7768C249.781 83.0057 244.743 82.3599 245.518 78.4852L262.438 9.77398C263.084 6.93254 268.121 7.9658 267.217 11.0656L262.309 31.8597C264.246 30.8265 266.7 29.9224 269.412 29.9224C279.099 29.9224 281.682 35.7344 281.682 42.838C281.682 51.6207 277.549 59.6284 277.549 67.8944C277.549 72.2857 279.357 76.5479 285.04 76.5479C293.565 76.5479 296.019 68.1527 297.827 62.3406L297.956 60.9199C298.989 57.691 303.897 59.1117 302.864 62.0823L302.606 63.8905C300.281 72.2857 296.794 81.7141 285.04 81.7141ZM309.322 83.0057C297.31 83.0057 295.502 70.7358 297.698 61.9532L305.318 33.0221C306.222 29.7932 311.388 30.5682 310.355 34.1845L302.864 63.3739C301.572 68.9276 301.831 77.8394 309.322 77.8394C316.684 77.8394 319.912 67.7652 321.075 62.2115L328.437 33.1513C329.212 29.6641 334.378 30.439 333.474 34.3137L320.687 85.8471C318.492 94.6297 313.455 105.091 303.51 105.091C299.635 105.091 296.535 103.929 294.21 101.475C292.144 99.1502 295.502 95.2755 297.698 97.7295C299.247 99.2794 301.314 99.9252 303.51 99.9252C311.001 99.9252 314.23 90.2384 315.65 84.8139L316.684 80.5517C314.488 81.9724 311.905 83.0057 309.322 83.0057ZM350.393 50.7166L348.069 60.7908C350.652 61.6949 351.814 61.9532 353.364 61.9532C362.922 61.9532 371.188 51.2332 371.188 42.9672C371.188 38.705 368.863 34.9595 364.342 34.9595C358.401 34.9595 351.943 43.7421 350.393 50.7166ZM368.992 77.7102C378.162 77.7102 383.07 68.1527 384.62 62.2115L385.136 60.7908C385.911 58.3368 390.69 58.5951 389.915 61.9532L389.269 64.0197C387.332 71.2524 382.037 82.8765 368.992 82.8765C358.143 82.8765 350.393 75.1271 346.39 66.6028L343.548 79.6476C342.515 83.0057 337.607 82.489 338.382 78.356L349.231 33.0221C350.264 29.5349 355.689 30.9556 354.268 34.0554C357.239 31.6014 360.597 29.7932 364.342 29.7932C372.608 29.7932 376.354 36.1219 376.354 43.0963C376.354 55.6245 364.213 67.3777 352.072 66.8611C355.043 72.544 361.63 77.7102 368.992 77.7102Z" fill="white"/>
</svg>
