<svg width="361" height="97" viewBox="0 0 361 97" fill="none" xmlns="http://www.w3.org/2000/svg">
<g clip-path="url(#clip0_10338_1012)">
<path d="M51.9368 47.3478L26.4006 16.4916L0.864424 47.3478L26.4006 78.2041L51.9368 47.3478Z" fill="#7D67FF"/>
<path d="M63.2731 47.3478L39.2974 18.3772L15.3217 47.3478L39.2974 76.3185L63.2731 47.3478Z" stroke="#352E5B"/>
</g>
<path d="M70.1602 55.7824C70.1602 65.4691 77.3929 69.6021 84.3674 69.6021C93.7958 69.6021 101.416 62.111 103.483 54.3616L103.87 52.8118C105.032 49.0662 109.553 50.3578 108.52 53.9742L108.261 55.7824C105.42 66.244 96.2497 74.7684 84.3674 74.7684C74.0348 74.7684 64.8647 68.4397 64.8647 55.7824C64.8647 52.6826 65.3814 49.4537 69.1269 35.7631C71.3226 27.8846 76.1014 21.8142 84.6257 21.8142C93.15 21.8142 97.4122 27.1096 97.4122 34.4716C97.4122 35.7631 97.1538 37.313 96.7664 38.992C96.1206 41.5752 91.0835 40.8002 91.9876 37.5713C92.1167 36.4089 92.2459 35.3756 92.2459 34.6007C92.2459 29.8219 89.6628 26.8513 84.6257 26.8513C78.5553 26.8513 75.4556 31.7593 73.9057 37.1838C70.4185 49.9703 70.1602 52.8118 70.1602 55.7824ZM114.977 74.8975C102.966 74.8975 101.158 62.6277 103.353 53.845L110.974 24.914C111.878 21.6851 117.044 22.46 116.011 26.0764L108.52 55.2657C107.228 60.8195 107.486 69.7313 114.977 69.7313C122.339 69.7313 125.568 59.6571 126.731 54.1033L134.093 25.0431C134.868 21.5559 140.034 22.3309 139.13 26.2055L126.343 77.7389C124.148 86.5216 119.11 96.9833 109.165 96.9833C105.291 96.9833 102.191 95.8208 99.8661 93.3669C97.7996 91.0421 101.158 87.1674 103.353 89.6213C104.903 91.1712 106.97 91.817 109.165 91.817C116.656 91.817 119.885 82.1303 121.306 76.7057L122.339 72.4435C120.144 73.8643 117.561 74.8975 114.977 74.8975ZM138.613 93.496L155.145 25.0431C156.049 21.9434 160.699 22.0725 159.149 26.0764C161.345 23.7516 165.219 21.8142 168.965 21.8142C180.976 21.8142 183.172 33.3091 180.718 43.125L177.747 55.6532C175.552 63.9192 170.127 74.8975 160.311 74.8975C155.016 74.8975 152.045 72.4435 149.85 69.6021C147.783 77.8681 145.458 86.3924 143.521 94.6584C142.746 98.0165 137.709 96.8541 138.613 93.496ZM157.341 37.5713L153.337 55.2657C152.045 61.2069 152.174 69.7313 160.311 69.7313C167.544 69.7313 171.16 60.1737 172.71 54.2325L175.552 41.9626C177.102 35.7631 177.102 26.8513 168.965 26.8513C162.378 26.8513 158.632 32.7925 157.341 37.5713ZM227.473 73.6059C218.432 73.6059 214.944 66.7607 214.944 59.7862C214.944 50.7453 219.465 42.8667 219.465 34.3424C219.465 30.3386 217.657 26.8513 211.845 26.8513C208.099 26.8513 203.191 30.2094 201.383 37.1838L193.117 71.6686C192.213 74.8975 187.176 74.2517 187.951 70.377L204.87 1.66583C205.516 -1.17561 210.553 -0.142357 209.649 2.9574L204.741 23.7516C206.678 22.7183 209.132 21.8142 211.845 21.8142C221.531 21.8142 224.115 27.6263 224.115 34.7299C224.115 43.5125 219.982 51.5202 219.982 59.7862C219.982 64.1775 221.79 68.4397 227.473 68.4397C235.997 68.4397 238.451 60.0445 240.259 54.2325L240.388 52.8118C241.422 49.5829 246.329 51.0036 245.296 53.9742L245.038 55.7824C242.713 64.1775 239.226 73.6059 227.473 73.6059ZM251.754 74.8975C239.743 74.8975 237.934 62.6277 240.13 53.845L247.75 24.914C248.654 21.6851 253.821 22.46 252.787 26.0764L245.296 55.2657C244.005 60.8195 244.263 69.7313 251.754 69.7313C259.116 69.7313 262.345 59.6571 263.507 54.1033L270.869 25.0431C271.644 21.5559 276.81 22.3309 275.906 26.2055L263.12 77.7389C260.924 86.5216 255.887 96.9833 245.942 96.9833C242.067 96.9833 238.968 95.8208 236.643 93.3669C234.576 91.0421 237.934 87.1674 240.13 89.6213C241.68 91.1712 243.746 91.817 245.942 91.817C253.433 91.817 256.662 82.1303 258.083 76.7057L259.116 72.4435C256.92 73.8643 254.337 74.8975 251.754 74.8975ZM292.826 42.6084L290.501 52.6826C293.084 53.5867 294.246 53.845 295.796 53.845C305.354 53.845 313.62 43.125 313.62 34.859C313.62 30.5969 311.295 26.8513 306.775 26.8513C300.833 26.8513 294.376 35.634 292.826 42.6084ZM311.424 69.6021C320.594 69.6021 325.502 60.0445 327.052 54.1033L327.569 52.6826C328.344 50.2286 333.123 50.487 332.348 53.845L331.702 55.9115C329.764 63.1443 324.469 74.7684 311.424 74.7684C300.575 74.7684 292.826 67.019 288.822 58.4946L285.98 71.5394C284.947 74.8975 280.039 74.3809 280.814 70.2479L291.663 24.914C292.697 21.4268 298.121 22.8475 296.7 25.9472C299.671 23.4933 303.029 21.6851 306.775 21.6851C315.041 21.6851 318.786 28.0137 318.786 34.9882C318.786 47.5164 306.645 59.2696 294.505 58.753C297.475 64.4358 304.062 69.6021 311.424 69.6021Z" fill="#352E5B"/>
<defs>
<clipPath id="clip0_10338_1012">
<rect width="64" height="64" fill="white" transform="translate(0.864746 16.4916)"/>
</clipPath>
</defs>
</svg>
