<svg width="268" height="98" viewBox="0 0 268 98" fill="none" xmlns="http://www.w3.org/2000/svg">
<path d="M5.72778 55.8905C5.72778 65.5772 12.9605 69.7102 19.935 69.7102C29.3634 69.7102 36.9836 62.2192 39.0501 54.4698L39.4376 52.9199C40.6 49.1744 45.1205 50.4659 44.0872 54.0823L43.8289 55.8905C40.9875 66.3522 31.8174 74.8765 19.935 74.8765C9.60248 74.8765 0.432373 68.5478 0.432373 55.8905C0.432373 52.7908 0.948998 49.5619 4.69453 35.8713C6.89019 27.9927 11.669 21.9224 20.1933 21.9224C28.7176 21.9224 32.9798 27.2178 32.9798 34.5797C32.9798 35.8713 32.7215 37.4212 32.334 39.1002C31.6882 41.6833 26.6511 40.9084 27.5552 37.6795C27.6844 36.5171 27.8135 35.4838 27.8135 34.7089C27.8135 29.9301 25.2304 26.9595 20.1933 26.9595C14.1229 26.9595 11.0232 31.8674 9.47332 37.292C5.9861 50.0785 5.72778 52.9199 5.72778 55.8905ZM50.5451 75.0057C38.5335 75.0057 36.7253 62.7358 38.921 53.9532L46.5412 25.0221C47.4453 21.7932 52.6116 22.5682 51.5783 26.1845L44.0872 55.3739C42.7957 60.9276 43.054 69.8394 50.5451 69.8394C57.907 69.8394 61.1359 59.7652 62.2983 54.2115L69.6602 25.1513C70.4351 21.6641 75.6014 22.439 74.6973 26.3137L61.9108 77.8471C59.7152 86.6297 54.6781 97.0914 44.733 97.0914C40.8583 97.0914 37.7586 95.929 35.4338 93.475C33.3673 91.1502 36.7253 87.2755 38.921 89.7295C40.4709 91.2794 42.5374 91.9252 44.733 91.9252C52.2241 91.9252 55.453 82.2384 56.8737 76.8139L57.907 72.5517C55.7113 73.9724 53.1282 75.0057 50.5451 75.0057ZM74.1807 93.6042L90.7127 25.1513C91.6168 22.0515 96.2664 22.1807 94.7165 26.1845C96.9122 23.8597 100.787 21.9224 104.532 21.9224C116.544 21.9224 118.74 33.4173 116.286 43.2332L113.315 55.7614C111.119 64.0274 105.695 75.0057 95.8789 75.0057C90.5835 75.0057 87.6129 72.5517 85.4173 69.7102C83.3508 77.9763 81.026 86.5006 79.0886 94.7666C78.3137 98.1247 73.2766 96.9623 74.1807 93.6042ZM92.9083 37.6795L88.9045 55.3739C87.6129 61.3151 87.7421 69.8394 95.8789 69.8394C103.112 69.8394 106.728 60.2818 108.278 54.3406L111.119 42.0708C112.669 35.8713 112.669 26.9595 104.532 26.9595C97.9455 26.9595 94.1999 32.9007 92.9083 37.6795ZM163.04 73.7141C153.999 73.7141 150.512 66.8688 150.512 59.8944C150.512 50.8534 155.033 42.9749 155.033 34.4506C155.033 30.4467 153.224 26.9595 147.412 26.9595C143.667 26.9595 138.759 30.3175 136.951 37.292L128.685 71.7768C127.781 75.0057 122.743 74.3599 123.518 70.4852L140.438 1.77398C141.084 -1.06746 146.121 -0.0342023 145.217 3.06555L140.309 23.8597C142.246 22.8265 144.7 21.9224 147.412 21.9224C157.099 21.9224 159.682 27.7344 159.682 34.838C159.682 43.6207 155.549 51.6284 155.549 59.8944C155.549 64.2857 157.357 68.5479 163.04 68.5479C171.565 68.5479 174.019 60.1527 175.827 54.3406L175.956 52.9199C176.989 49.691 181.897 51.1117 180.864 54.0823L180.606 55.8905C178.281 64.2857 174.794 73.7141 163.04 73.7141ZM187.322 75.0057C175.31 75.0057 173.502 62.7358 175.698 53.9532L183.318 25.0221C184.222 21.7932 189.388 22.5682 188.355 26.1845L180.864 55.3739C179.572 60.9276 179.831 69.8394 187.322 69.8394C194.684 69.8394 197.912 59.7652 199.075 54.2115L206.437 25.1513C207.212 21.6641 212.378 22.439 211.474 26.3137L198.687 77.8471C196.492 86.6297 191.455 97.0914 181.51 97.0914C177.635 97.0914 174.535 95.929 172.21 93.475C170.144 91.1502 173.502 87.2755 175.698 89.7295C177.247 91.2794 179.314 91.9252 181.51 91.9252C189.001 91.9252 192.23 82.2384 193.65 76.8139L194.684 72.5517C192.488 73.9724 189.905 75.0057 187.322 75.0057ZM228.393 42.7166L226.069 52.7908C228.652 53.6949 229.814 53.9532 231.364 53.9532C240.922 53.9532 249.188 43.2332 249.188 34.9672C249.188 30.705 246.863 26.9595 242.342 26.9595C236.401 26.9595 229.943 35.7421 228.393 42.7166ZM246.992 69.7102C256.162 69.7102 261.07 60.1527 262.62 54.2115L263.136 52.7908C263.911 50.3368 268.69 50.5951 267.915 53.9532L267.269 56.0197C265.332 63.2524 260.037 74.8765 246.992 74.8765C236.143 74.8765 228.393 67.1271 224.39 58.6028L221.548 71.6476C220.515 75.0057 215.607 74.489 216.382 70.356L227.231 25.0221C228.264 21.5349 233.689 22.9556 232.268 26.0554C235.239 23.6014 238.597 21.7932 242.342 21.7932C250.608 21.7932 254.354 28.1219 254.354 35.0963C254.354 47.6245 242.213 59.3777 230.072 58.8611C233.043 64.544 239.63 69.7102 246.992 69.7102Z" fill="white"/>
</svg>
