<svg width="268" height="98" viewBox="0 0 268 98" fill="none" xmlns="http://www.w3.org/2000/svg">
<path d="M5.56568 55.8905C5.56568 65.5772 12.7984 69.7102 19.7729 69.7102C29.2013 69.7102 36.8215 62.2192 38.888 54.4698L39.2755 52.9199C40.4379 49.1744 44.9584 50.4659 43.9251 54.0823L43.6668 55.8905C40.8254 66.3522 31.6553 74.8765 19.7729 74.8765C9.44037 74.8765 0.270264 68.5478 0.270264 55.8905C0.270264 52.7908 0.786889 49.5619 4.53242 35.8713C6.72808 27.9927 11.5069 21.9224 20.0312 21.9224C28.5555 21.9224 32.8177 27.2178 32.8177 34.5797C32.8177 35.8713 32.5594 37.4212 32.1719 39.1002C31.5261 41.6833 26.489 40.9084 27.3931 37.6795C27.5223 36.5171 27.6514 35.4838 27.6514 34.7089C27.6514 29.9301 25.0683 26.9595 20.0312 26.9595C13.9608 26.9595 10.8611 31.8674 9.31121 37.292C5.82399 50.0785 5.56568 52.9199 5.56568 55.8905ZM50.3829 75.0057C38.3714 75.0057 36.5632 62.7358 38.7589 53.9532L46.3791 25.0221C47.2832 21.7932 52.4494 22.5682 51.4162 26.1845L43.9251 55.3739C42.6336 60.9276 42.8919 69.8394 50.3829 69.8394C57.7449 69.8394 60.9738 59.7652 62.1362 54.2115L69.4981 25.1513C70.273 21.6641 75.4393 22.439 74.5352 26.3137L61.7487 77.8471C59.553 86.6297 54.5159 97.0914 44.5709 97.0914C40.6962 97.0914 37.5965 95.929 35.2716 93.475C33.2051 91.1502 36.5632 87.2755 38.7589 89.7295C40.3087 91.2794 42.3752 91.9252 44.5709 91.9252C52.062 91.9252 55.2909 82.2384 56.7116 76.8139L57.7449 72.5517C55.5492 73.9724 52.9661 75.0057 50.3829 75.0057ZM74.0186 93.6042L90.5506 25.1513C91.4547 22.0515 96.1043 22.1807 94.5544 26.1845C96.7501 23.8597 100.625 21.9224 104.37 21.9224C116.382 21.9224 118.578 33.4173 116.124 43.2332L113.153 55.7614C110.957 64.0274 105.533 75.0057 95.7168 75.0057C90.4214 75.0057 87.4508 72.5517 85.2552 69.7102C83.1887 77.9763 80.8638 86.5006 78.9265 94.7666C78.1516 98.1247 73.1145 96.9623 74.0186 93.6042ZM92.7462 37.6795L88.7424 55.3739C87.4508 61.3151 87.58 69.8394 95.7168 69.8394C102.95 69.8394 106.566 60.2818 108.116 54.3406L110.957 42.0708C112.507 35.8713 112.507 26.9595 104.37 26.9595C97.7833 26.9595 94.0378 32.9007 92.7462 37.6795ZM162.878 73.7141C153.837 73.7141 150.35 66.8688 150.35 59.8944C150.35 50.8534 154.87 42.9749 154.87 34.4506C154.87 30.4467 153.062 26.9595 147.25 26.9595C143.505 26.9595 138.597 30.3175 136.789 37.292L128.523 71.7768C127.618 75.0057 122.581 74.3599 123.356 70.4852L140.276 1.77398C140.922 -1.06746 145.959 -0.0342023 145.055 3.06555L140.147 23.8597C142.084 22.8265 144.538 21.9224 147.25 21.9224C156.937 21.9224 159.52 27.7344 159.52 34.838C159.52 43.6207 155.387 51.6284 155.387 59.8944C155.387 64.2857 157.195 68.5479 162.878 68.5479C171.402 68.5479 173.856 60.1527 175.665 54.3406L175.794 52.9199C176.827 49.691 181.735 51.1117 180.702 54.0823L180.443 55.8905C178.119 64.2857 174.631 73.7141 162.878 73.7141ZM187.16 75.0057C175.148 75.0057 173.34 62.7358 175.535 53.9532L183.156 25.0221C184.06 21.7932 189.226 22.5682 188.193 26.1845L180.702 55.3739C179.41 60.9276 179.668 69.8394 187.16 69.8394C194.521 69.8394 197.75 59.7652 198.913 54.2115L206.275 25.1513C207.05 21.6641 212.216 22.439 211.312 26.3137L198.525 77.8471C196.33 86.6297 191.293 97.0914 181.348 97.0914C177.473 97.0914 174.373 95.929 172.048 93.475C169.982 91.1502 173.34 87.2755 175.535 89.7295C177.085 91.2794 179.152 91.9252 181.348 91.9252C188.839 91.9252 192.068 82.2384 193.488 76.8139L194.521 72.5517C192.326 73.9724 189.743 75.0057 187.16 75.0057ZM228.231 42.7166L225.906 52.7908C228.49 53.6949 229.652 53.9532 231.202 53.9532C240.759 53.9532 249.025 43.2332 249.025 34.9672C249.025 30.705 246.701 26.9595 242.18 26.9595C236.239 26.9595 229.781 35.7421 228.231 42.7166ZM246.83 69.7102C256 69.7102 260.908 60.1527 262.458 54.2115L262.974 52.7908C263.749 50.3368 268.528 50.5951 267.753 53.9532L267.107 56.0197C265.17 63.2524 259.875 74.8765 246.83 74.8765C235.981 74.8765 228.231 67.1271 224.227 58.6028L221.386 71.6476C220.353 75.0057 215.445 74.489 216.22 70.356L227.069 25.0221C228.102 21.5349 233.527 22.9556 232.106 26.0554C235.077 23.6014 238.435 21.7932 242.18 21.7932C250.446 21.7932 254.192 28.1219 254.192 35.0963C254.192 47.6245 242.051 59.3777 229.91 58.8611C232.881 64.544 239.468 69.7102 246.83 69.7102Z" fill="#0C0A01"/>
</svg>
