<svg width="396" height="132" viewBox="0 0 396 132" fill="none" xmlns="http://www.w3.org/2000/svg">
<g clip-path="url(#clip0_10282_853)">
<path d="M96.8155 24.6162L80.1812 48.9149H87.5957V131.643H106.035V48.9149H113.449L96.8155 24.6162Z" fill="#7D67FF"/>
<path d="M59.9352 53.8322L43.302 78.1297H50.7142V131.643H69.155V78.1297H76.5684L59.9352 53.8322Z" fill="#7D67FF"/>
<path d="M23.0536 78.1298L6.42163 102.427H13.835V131.643H32.2746V102.427H39.6892L23.0536 78.1298Z" fill="#7D67FF"/>
<path d="M133.728 87.8905C133.728 97.5772 140.961 101.71 147.935 101.71C157.363 101.71 164.984 94.2192 167.05 86.4698L167.438 84.9199C168.6 81.1744 173.12 82.4659 172.087 86.0823L171.829 87.8905C168.987 98.3522 159.817 106.877 147.935 106.877C137.602 106.877 128.432 100.548 128.432 87.8905C128.432 84.7908 128.949 81.5619 132.695 67.8713C134.89 59.9927 139.669 53.9224 148.193 53.9224C156.718 53.9224 160.98 59.2178 160.98 66.5797C160.98 67.8713 160.721 69.4212 160.334 71.1002C159.688 73.6833 154.651 72.9084 155.555 69.6795C155.684 68.5171 155.814 67.4838 155.814 66.7089C155.814 61.9301 153.23 58.9595 148.193 58.9595C142.123 58.9595 139.023 63.8674 137.473 69.292C133.986 82.0785 133.728 84.9199 133.728 87.8905ZM178.545 107.006C166.534 107.006 164.725 94.7358 166.921 85.9532L174.541 57.0221C175.445 53.7932 180.612 54.5682 179.578 58.1845L172.087 87.3739C170.796 92.9276 171.054 101.839 178.545 101.839C185.907 101.839 189.136 91.7652 190.298 86.2115L197.66 57.1513C198.435 53.6641 203.601 54.439 202.697 58.3137L189.911 109.847C187.715 118.63 182.678 129.091 172.733 129.091C168.858 129.091 165.759 127.929 163.434 125.475C161.367 123.15 164.725 119.276 166.921 121.729C168.471 123.279 170.537 123.925 172.733 123.925C180.224 123.925 183.453 114.238 184.874 108.814L185.907 104.552C183.711 105.972 181.128 107.006 178.545 107.006ZM202.181 125.604L218.713 57.1513C219.617 54.0515 224.266 54.1807 222.717 58.1845C224.912 55.8597 228.787 53.9224 232.532 53.9224C244.544 53.9224 246.74 65.4173 244.286 75.2332L241.315 87.7614C239.119 96.0274 233.695 107.006 223.879 107.006C218.584 107.006 215.613 104.552 213.417 101.71C211.351 109.976 209.026 118.501 207.089 126.767C206.314 130.125 201.277 128.962 202.181 125.604ZM220.908 69.6795L216.904 87.3739C215.613 93.3151 215.742 101.839 223.879 101.839C231.112 101.839 234.728 92.2818 236.278 86.3406L239.119 74.0708C240.669 67.8713 240.669 58.9595 232.532 58.9595C225.945 58.9595 222.2 64.9007 220.908 69.6795ZM291.04 105.714C281.999 105.714 278.512 98.8688 278.512 91.8944C278.512 82.8534 283.033 74.9749 283.033 66.4506C283.033 62.4467 281.224 58.9595 275.412 58.9595C271.667 58.9595 266.759 62.3175 264.951 69.292L256.685 103.777C255.781 107.006 250.743 106.36 251.518 102.485L268.438 33.774C269.084 30.9325 274.121 31.9658 273.217 35.0656L268.309 55.8597C270.246 54.8265 272.7 53.9224 275.412 53.9224C285.099 53.9224 287.682 59.7344 287.682 66.838C287.682 75.6207 283.549 83.6284 283.549 91.8944C283.549 96.2857 285.357 100.548 291.04 100.548C299.565 100.548 302.019 92.1527 303.827 86.3406L303.956 84.9199C304.989 81.691 309.897 83.1117 308.864 86.0823L308.606 87.8905C306.281 96.2857 302.794 105.714 291.04 105.714ZM315.322 107.006C303.31 107.006 301.502 94.7358 303.698 85.9532L311.318 57.0221C312.222 53.7932 317.388 54.5682 316.355 58.1845L308.864 87.3739C307.572 92.9276 307.831 101.839 315.322 101.839C322.684 101.839 325.912 91.7652 327.075 86.2115L334.437 57.1513C335.212 53.6641 340.378 54.439 339.474 58.3137L326.687 109.847C324.492 118.63 319.455 129.091 309.51 129.091C305.635 129.091 302.535 127.929 300.21 125.475C298.144 123.15 301.502 119.276 303.698 121.729C305.247 123.279 307.314 123.925 309.51 123.925C317.001 123.925 320.23 114.238 321.65 108.814L322.684 104.552C320.488 105.972 317.905 107.006 315.322 107.006ZM356.393 74.7166L354.069 84.7908C356.652 85.6949 357.814 85.9532 359.364 85.9532C368.922 85.9532 377.188 75.2332 377.188 66.9672C377.188 62.705 374.863 58.9595 370.342 58.9595C364.401 58.9595 357.943 67.7421 356.393 74.7166ZM374.992 101.71C384.162 101.71 389.07 92.1527 390.62 86.2115L391.136 84.7908C391.911 82.3368 396.69 82.5951 395.915 85.9532L395.269 88.0197C393.332 95.2524 388.037 106.877 374.992 106.877C364.143 106.877 356.393 99.1271 352.39 90.6028L349.548 103.648C348.515 107.006 343.607 106.489 344.382 102.356L355.231 57.0221C356.264 53.5349 361.689 54.9556 360.268 58.0554C363.239 55.6014 366.597 53.7932 370.342 53.7932C378.608 53.7932 382.354 60.1219 382.354 67.0963C382.354 79.6245 370.213 91.3777 358.072 90.8611C361.043 96.544 367.63 101.71 374.992 101.71Z" fill="white"/>
</g>
<defs>
<clipPath id="clip0_10282_853">
<rect width="396" height="131.643" fill="white"/>
</clipPath>
</defs>
</svg>
