<svg width="339" height="131" viewBox="0 0 339 131" fill="none" xmlns="http://www.w3.org/2000/svg">
<g clip-path="url(#clip0_10282_853)">
<g clip-path="url(#clip1_10282_853)">
<mask id="mask0_10282_853" style="mask-type:luminance" maskUnits="userSpaceOnUse" x="0" y="49" width="64" height="64">
<path d="M63.8669 49.9833H0.851562V112.999H63.8669V49.9833Z" fill="white"/>
</mask>
<g mask="url(#mask0_10282_853)">
<path d="M51.138 80.3648L25.9946 49.9833L0.851318 80.3648L25.9946 110.746L51.138 80.3648Z" fill="#7D67FF"/>
<path d="M62.2999 80.3647L38.693 51.8398L15.0862 80.3647L38.693 108.89L62.2999 80.3647Z" stroke="#352E5B"/>
</g>
</g>
<path d="M76.2954 72.7824C76.2954 82.4691 83.5282 86.6021 90.5026 86.6021C99.931 86.6021 107.551 79.111 109.618 71.3616L110.005 69.8118C111.168 66.0662 115.688 67.3578 114.655 70.9742L114.397 72.7824C111.555 83.244 102.385 91.7684 90.5026 91.7684C80.1701 91.7684 71 85.4397 71 72.7824C71 69.6826 71.5166 66.4537 75.2622 52.7631C77.4578 44.8846 82.2366 38.8142 90.7609 38.8142C99.2852 38.8142 103.547 44.1096 103.547 51.4716C103.547 52.7631 103.289 54.313 102.902 55.992C102.256 58.5752 97.2187 57.8002 98.1228 54.5713C98.252 53.4089 98.3812 52.3756 98.3812 51.6007C98.3812 46.8219 95.798 43.8513 90.7609 43.8513C84.6906 43.8513 81.5908 48.7593 80.0409 54.1838C76.5537 66.9703 76.2954 69.8118 76.2954 72.7824ZM121.113 91.8975C109.101 91.8975 107.293 79.6277 109.489 70.845L117.109 41.914C118.013 38.6851 123.179 39.46 122.146 43.0764L114.655 72.2657C113.363 77.8195 113.622 86.7313 121.113 86.7313C128.475 86.7313 131.704 76.6571 132.866 71.1033L140.228 42.0431C141.003 38.5559 146.169 39.3309 145.265 43.2055L132.478 94.7389C130.283 103.522 125.246 113.983 115.301 113.983C111.426 113.983 108.326 112.821 106.001 110.367C103.935 108.042 107.293 104.167 109.489 106.621C111.038 108.171 113.105 108.817 115.301 108.817C122.792 108.817 126.021 99.1303 127.441 93.7057L128.475 89.4435C126.279 90.8643 123.696 91.8975 121.113 91.8975ZM144.748 110.496L161.28 42.0431C162.184 38.9434 166.834 39.0725 165.284 43.0764C167.48 40.7516 171.355 38.8142 175.1 38.8142C187.112 38.8142 189.307 50.3091 186.853 60.125L183.883 72.6532C181.687 80.9192 176.262 91.8975 166.447 91.8975C161.151 91.8975 158.181 89.4435 155.985 86.6021C153.918 94.8681 151.594 103.392 149.656 111.658C148.881 115.017 143.844 113.854 144.748 110.496ZM163.476 54.5713L159.472 72.2657C158.181 78.2069 158.31 86.7313 166.447 86.7313C173.679 86.7313 177.296 77.1737 178.846 71.2325L181.687 58.9626C183.237 52.7631 183.237 43.8513 175.1 43.8513C168.513 43.8513 164.768 49.7925 163.476 54.5713ZM233.608 90.6059C224.567 90.6059 221.08 83.7607 221.08 76.7862C221.08 67.7453 225.6 59.8667 225.6 51.3424C225.6 47.3386 223.792 43.8513 217.98 43.8513C214.234 43.8513 209.327 47.2094 207.518 54.1838L199.252 88.6686C198.348 91.8975 193.311 91.2517 194.086 87.377L211.006 18.6658C211.651 15.8244 216.688 16.8576 215.784 19.9574L210.876 40.7516C212.814 39.7183 215.268 38.8142 217.98 38.8142C227.667 38.8142 230.25 44.6263 230.25 51.7299C230.25 60.5125 226.117 68.5202 226.117 76.7862C226.117 81.1775 227.925 85.4397 233.608 85.4397C242.132 85.4397 244.586 77.0445 246.394 71.2325L246.524 69.8118C247.557 66.5829 252.465 68.0036 251.431 70.9742L251.173 72.7824C248.848 81.1775 245.361 90.6059 233.608 90.6059ZM257.889 91.8975C245.878 91.8975 244.07 79.6277 246.265 70.845L253.885 41.914C254.79 38.6851 259.956 39.46 258.923 43.0764L251.431 72.2657C250.14 77.8195 250.398 86.7313 257.889 86.7313C265.251 86.7313 268.48 76.6571 269.643 71.1033L277.004 42.0431C277.779 38.5559 282.946 39.3309 282.042 43.2055L269.255 94.7389C267.059 103.522 262.022 113.983 252.077 113.983C248.203 113.983 245.103 112.821 242.778 110.367C240.712 108.042 244.07 104.167 246.265 106.621C247.815 108.171 249.882 108.817 252.077 108.817C259.568 108.817 262.797 99.1303 264.218 93.7057L265.251 89.4435C263.056 90.8643 260.472 91.8975 257.889 91.8975ZM298.961 59.6084L296.636 69.6826C299.219 70.5867 300.382 70.845 301.932 70.845C311.489 70.845 319.755 60.125 319.755 51.859C319.755 47.5969 317.43 43.8513 312.91 43.8513C306.969 43.8513 300.511 52.634 298.961 59.6084ZM317.56 86.6021C326.73 86.6021 331.638 77.0445 333.187 71.1033L333.704 69.6826C334.479 67.2286 339.258 67.487 338.483 70.845L337.837 72.9115C335.9 80.1443 330.604 91.7684 317.56 91.7684C306.71 91.7684 298.961 84.019 294.957 75.4946L292.116 88.5394C291.082 91.8975 286.175 91.3809 286.949 87.2479L297.799 41.914C298.832 38.4268 304.256 39.8475 302.836 42.9472C305.806 40.4933 309.164 38.6851 312.91 38.6851C321.176 38.6851 324.921 45.0137 324.921 51.9882C324.921 64.5164 312.781 76.2696 300.64 75.753C303.611 81.4358 310.198 86.6021 317.56 86.6021Z" fill="white"/>
</g>
<defs>
<clipPath id="clip0_10282_853">
<rect width="338.568" height="130.983" fill="white"/>
</clipPath>
<clipPath id="clip1_10282_853">
<rect width="64" height="64" fill="white" transform="translate(0 49.9833)"/>
</clipPath>
</defs>
</svg>
