<svg width="553" height="108" viewBox="0 0 553 108" fill="none" xmlns="http://www.w3.org/2000/svg">
<path d="M128.4 0.682861L104.792 25.0474H115.315V108H141.484V25.0474H152.006L128.4 0.682861Z" fill="#0C0A01"/>
<path d="M76.0595 29.978L52.4539 54.3414H62.9732V108H89.1442V54.3414H99.6652L76.0595 29.978Z" fill="#0C0A01"/>
<path d="M23.7175 54.3414L0.113525 78.7048H10.6346V108H36.8039V78.7048H47.3266L23.7175 54.3414Z" fill="#0C0A01"/>
<path d="M178.566 63.8905C178.566 73.5772 185.798 77.7102 192.773 77.7102C202.201 77.7102 209.822 70.2192 211.888 62.4698L212.275 60.9199C213.438 57.1744 217.958 58.4659 216.925 62.0823L216.667 63.8905C213.825 74.3522 204.655 82.8765 192.773 82.8765C182.44 82.8765 173.27 76.5478 173.27 63.8905C173.27 60.7908 173.787 57.5619 177.532 43.8713C179.728 35.9927 184.507 29.9224 193.031 29.9224C201.556 29.9224 205.818 35.2178 205.818 42.5797C205.818 43.8713 205.559 45.4212 205.172 47.1002C204.526 49.6833 199.489 48.9084 200.393 45.6795C200.522 44.5171 200.651 43.4838 200.651 42.7089C200.651 37.9301 198.068 34.9595 193.031 34.9595C186.961 34.9595 183.861 39.8674 182.311 45.292C178.824 58.0785 178.566 60.9199 178.566 63.8905ZM223.383 83.0057C211.371 83.0057 209.563 70.7358 211.759 61.9532L219.379 33.0221C220.283 29.7932 225.449 30.5682 224.416 34.1845L216.925 63.3739C215.634 68.9276 215.892 77.8394 223.383 77.8394C230.745 77.8394 233.974 67.7652 235.136 62.2115L242.498 33.1513C243.273 29.6641 248.439 30.439 247.535 34.3137L234.749 85.8471C232.553 94.6297 227.516 105.091 217.571 105.091C213.696 105.091 210.596 103.929 208.272 101.475C206.205 99.1502 209.563 95.2755 211.759 97.7295C213.309 99.2794 215.375 99.9252 217.571 99.9252C225.062 99.9252 228.291 90.2384 229.712 84.8139L230.745 80.5517C228.549 81.9724 225.966 83.0057 223.383 83.0057ZM247.019 101.604L263.551 33.1513C264.455 30.0515 269.104 30.1807 267.554 34.1845C269.75 31.8597 273.625 29.9224 277.37 29.9224C289.382 29.9224 291.578 41.4173 289.124 51.2332L286.153 63.7614C283.957 72.0274 278.533 83.0057 268.717 83.0057C263.421 83.0057 260.451 80.5517 258.255 77.7102C256.189 85.9763 253.864 94.5006 251.927 102.767C251.152 106.125 246.114 104.962 247.019 101.604ZM265.746 45.6795L261.742 63.3739C260.451 69.3151 260.58 77.8394 268.717 77.8394C275.95 77.8394 279.566 68.2818 281.116 62.3406L283.957 50.0708C285.507 43.8713 285.507 34.9595 277.37 34.9595C270.783 34.9595 267.038 40.9007 265.746 45.6795ZM335.878 81.7141C326.837 81.7141 323.35 74.8688 323.35 67.8944C323.35 58.8534 327.87 50.9749 327.87 42.4506C327.87 38.4467 326.062 34.9595 320.25 34.9595C316.505 34.9595 311.597 38.3175 309.789 45.292L301.523 79.7768C300.618 83.0057 295.581 82.3599 296.356 78.4852L313.276 9.77398C313.922 6.93254 318.959 7.9658 318.055 11.0656L313.147 31.8597C315.084 30.8265 317.538 29.9224 320.25 29.9224C329.937 29.9224 332.52 35.7344 332.52 42.838C332.52 51.6207 328.387 59.6284 328.387 67.8944C328.387 72.2857 330.195 76.5479 335.878 76.5479C344.402 76.5479 346.856 68.1527 348.665 62.3406L348.794 60.9199C349.827 57.691 354.735 59.1117 353.702 62.0823L353.443 63.8905C351.119 72.2857 347.631 81.7141 335.878 81.7141ZM360.16 83.0057C348.148 83.0057 346.34 70.7358 348.535 61.9532L356.156 33.0221C357.06 29.7932 362.226 30.5682 361.193 34.1845L353.702 63.3739C352.41 68.9276 352.668 77.8394 360.16 77.8394C367.521 77.8394 370.75 67.7652 371.913 62.2115L379.275 33.1513C380.05 29.6641 385.216 30.439 384.312 34.3137L371.525 85.8471C369.33 94.6297 364.293 105.091 354.348 105.091C350.473 105.091 347.373 103.929 345.048 101.475C342.982 99.1502 346.34 95.2755 348.535 97.7295C350.085 99.2794 352.152 99.9252 354.348 99.9252C361.839 99.9252 365.068 90.2384 366.488 84.8139L367.521 80.5517C365.326 81.9724 362.743 83.0057 360.16 83.0057ZM401.231 50.7166L398.906 60.7908C401.49 61.6949 402.652 61.9532 404.202 61.9532C413.759 61.9532 422.025 51.2332 422.025 42.9672C422.025 38.705 419.701 34.9595 415.18 34.9595C409.239 34.9595 402.781 43.7421 401.231 50.7166ZM419.83 77.7102C429 77.7102 433.908 68.1527 435.458 62.2115L435.974 60.7908C436.749 58.3368 441.528 58.5951 440.753 61.9532L440.107 64.0197C438.17 71.2524 432.875 82.8765 419.83 82.8765C408.981 82.8765 401.231 75.1271 397.227 66.6028L394.386 79.6476C393.353 83.0057 388.445 82.489 389.22 78.356L400.069 33.0221C401.102 29.5349 406.527 30.9556 405.106 34.0554C408.077 31.6014 411.435 29.7932 415.18 29.7932C423.446 29.7932 427.192 36.1219 427.192 43.0963C427.192 55.6245 415.051 67.3777 402.91 66.8611C405.881 72.544 412.468 77.7102 419.83 77.7102Z" fill="#0C0A01"/>
</svg>
