<svg width="33" height="33" viewBox="0 0 33 33" fill="none" xmlns="http://www.w3.org/2000/svg">
<path d="M4.8764 5.9873H27.3989C27.8164 5.9873 28.1812 6.11681 28.5082 6.3916L28.6469 6.51855C29.0091 6.88055 29.1782 7.28925 29.1782 7.7666V24.9561C29.1782 25.3712 29.0486 25.7338 28.7739 26.0596L28.6469 26.1973C28.2851 26.5581 27.8768 26.7275 27.3989 26.7275H4.8764C4.46072 26.7275 4.0976 26.598 3.77191 26.3242L3.63422 26.1982C3.27358 25.8378 3.10492 25.4312 3.10492 24.9561V7.7666C3.10492 7.34844 3.23422 6.98332 3.50824 6.65625L3.63422 6.51855H3.63519C3.9958 6.15653 4.40186 5.9873 4.8764 5.9873ZM4.3764 7.92676V25.4561H27.8989V8.85547L27.1245 9.36523L16.5034 16.3574C16.418 16.4023 16.3423 16.4383 16.2748 16.4648C16.2536 16.4732 16.2107 16.4844 16.1371 16.4844C16.0639 16.4843 16.0216 16.4732 16.0004 16.4648C15.9327 16.4382 15.8566 16.4024 15.7709 16.3574L5.3764 9.51367V8.58203L15.8637 15.4512L16.1371 15.6309L16.4106 15.4512L27.5395 8.18457L28.9457 7.2666H3.36664L4.3764 7.92676Z" fill="white" stroke="#352E5B"/>
</svg>
