<svg width="33" height="33" viewBox="0 0 33 33" fill="none" xmlns="http://www.w3.org/2000/svg">
<path d="M5.62964 4.6543H10.2966C10.545 4.65437 10.7381 4.72018 10.8982 4.8457L10.9646 4.90332C11.1335 5.06226 11.2666 5.27279 11.3542 5.55078L11.3884 5.67383L12.2781 9.70215C12.3131 9.94685 12.3173 10.1594 12.2947 10.3438L12.2625 10.5225C12.2256 10.6771 12.1611 10.8128 12.0652 10.9336L11.9587 11.0488L11.9529 11.0557L8.59546 14.3662L8.31616 14.6416L8.51636 14.9785C8.94074 15.6917 9.3846 16.3709 9.84839 17.0156L10.3191 17.6484C10.7981 18.273 11.3168 18.8745 11.8748 19.4531L12.446 20.0244C13.1575 20.7591 13.8963 21.4344 14.6638 22.0488L14.9968 22.3096C15.8898 22.9971 16.8224 23.5985 17.7947 24.1133L18.1257 24.2891L18.3875 24.0205L21.5935 20.7305L21.6033 20.7197C21.8074 20.4982 22.028 20.3596 22.2673 20.2881L22.2683 20.2891C22.4623 20.2315 22.6557 20.2095 22.8503 20.2236L23.0457 20.25L26.8191 21.085C27.1035 21.1642 27.3264 21.296 27.5017 21.4775L27.574 21.5586C27.7549 21.7771 27.8444 22.0244 27.8445 22.3213V26.8691C27.8445 27.2269 27.7297 27.4999 27.5046 27.7227C27.2769 27.948 27.0035 28.0605 26.6531 28.0605C24.2835 28.0605 21.8643 27.5273 19.3923 26.4482L18.8972 26.2246C16.4188 25.0732 14.104 23.4672 11.9539 21.4004L11.5261 20.9805C9.39811 18.8524 7.72985 16.5586 6.51538 14.0996L6.27808 13.6064L6.05444 13.1104C4.97291 10.6359 4.43823 8.21802 4.43823 5.85352C4.43825 5.54044 4.52604 5.29101 4.69897 5.08203L4.77808 4.99512C5.00302 4.76894 5.27558 4.6543 5.62964 4.6543ZM5.72534 6.45508C5.76097 7.27627 5.87881 8.1342 6.07593 9.02832L6.16479 9.41309C6.41753 10.4527 6.81493 11.6035 7.35132 12.8623L7.64038 13.541L8.16382 13.0205L10.8552 10.3428L11.0486 10.1504L10.9919 9.88379L10.2332 6.3291L10.1492 5.93359H5.70288L5.72534 6.45508ZM26.5662 22.333L26.1667 22.251L22.8533 21.5654L22.5818 21.5088L22.3904 21.71L19.7732 24.4531L19.2917 24.957L19.9236 25.251C20.7253 25.6239 21.5866 25.9366 22.5066 26.1885L22.9041 26.292C23.9757 26.5605 25.0215 26.7219 26.0408 26.7734L26.5662 26.7998V22.333Z" fill="white" stroke="white"/>
</svg>
