<svg width="49" height="49" viewBox="0 0 49 49" fill="none" xmlns="http://www.w3.org/2000/svg">
<path d="M7.24512 41.1593C6.32512 41.1593 5.52746 40.8215 4.85212 40.1458C4.17646 39.4705 3.83862 38.6728 3.83862 37.7528V11.9678C3.83862 11.0445 4.17646 10.244 4.85212 9.56631C5.52746 8.88831 6.32512 8.54932 7.24512 8.54932H41.0301C41.9535 8.54932 42.754 8.88831 43.4316 9.56631C44.1096 10.244 44.4486 11.0445 44.4486 11.9678V37.7528C44.4486 38.6728 44.1096 39.4705 43.4316 40.1458C42.754 40.8215 41.9535 41.1593 41.0301 41.1593H7.24512ZM7.24512 37.7528H41.0301V11.9678H7.24512V37.7528ZM20.4876 29.9103H13.4876C13.0626 29.9103 12.7065 30.055 12.4191 30.3443C12.1315 30.6333 11.9876 30.9916 11.9876 31.4193C11.9876 31.8466 12.1315 32.202 12.4191 32.4853C12.7065 32.7686 13.0626 32.9103 13.4876 32.9103H16.3376V33.6603C16.3376 34.0853 16.4823 34.4415 16.7716 34.7288C17.0606 35.0165 17.419 35.1603 17.8466 35.1603C18.274 35.1603 18.6293 35.0165 18.9126 34.7288C19.196 34.4415 19.3376 34.0853 19.3376 33.6603V32.9103H21.7376C22.271 32.9103 22.696 32.7103 23.0126 32.3103C23.3293 31.9103 23.4876 31.4603 23.4876 30.9603V25.2233C23.4876 24.6813 23.3293 24.2186 23.0126 23.8353C22.696 23.452 22.271 23.2603 21.7376 23.2603H14.9876V19.8103H21.9876C22.4126 19.8103 22.769 19.6656 23.0566 19.3763C23.344 19.0873 23.4876 18.729 23.4876 18.3013C23.4876 17.874 23.344 17.5186 23.0566 17.2353C22.769 16.952 22.4126 16.8103 21.9876 16.8103H19.3376V16.0603C19.3376 15.6353 19.193 15.279 18.9036 14.9913C18.6146 14.704 18.2563 14.5603 17.8286 14.5603C17.4013 14.5603 17.046 14.704 16.7626 14.9913C16.4793 15.279 16.3376 15.6353 16.3376 16.0603V16.8103H13.9376C13.4043 16.8103 12.946 17.0103 12.5626 17.4103C12.1793 17.8103 11.9876 18.279 11.9876 18.8163V24.5043C11.9876 25.0416 12.1793 25.4686 12.5626 25.7853C12.946 26.102 13.4043 26.2603 13.9376 26.2603H20.4876V29.9103ZM32.9361 33.1118L34.9166 31.1313C35.0573 30.9906 35.0923 30.8353 35.0216 30.6653C34.9513 30.4953 34.8171 30.4103 34.6191 30.4103H30.6861C30.4755 30.4103 30.333 30.4953 30.2586 30.6653C30.1846 30.8353 30.222 30.9906 30.3706 31.1313L32.3391 33.1118C32.4191 33.1948 32.518 33.2363 32.6356 33.2363C32.753 33.2363 32.8531 33.1948 32.9361 33.1118ZM30.6731 19.8103H34.6061C34.8041 19.8103 34.9406 19.7253 35.0156 19.5553C35.0903 19.3853 35.0573 19.226 34.9166 19.0773L32.9361 17.1088C32.8561 17.0258 32.7573 16.9843 32.6396 16.9843C32.5223 16.9843 32.4221 17.0258 32.3391 17.1088L30.3736 19.0743C30.223 19.225 30.1826 19.3853 30.2526 19.5553C30.3223 19.7253 30.4625 19.8103 30.6731 19.8103Z" fill="#352E5B"/>
</svg>
