<svg width="49" height="49" viewBox="0 0 49 49" fill="none" xmlns="http://www.w3.org/2000/svg">
<path d="M24.1346 45.4106C21.2983 45.4106 18.6296 44.8721 16.1286 43.7951C13.628 42.7177 11.4511 41.2527 9.59815 39.4C7.74548 37.547 6.28048 35.3692 5.20315 32.8665C4.12615 30.3639 3.58765 27.6942 3.58765 24.8575C3.58765 22.0212 4.12615 19.3525 5.20315 16.8515C6.28048 14.3509 7.74548 12.174 9.59815 10.321C11.4511 8.46838 13.6286 7.00338 16.1306 5.92605C18.6326 4.84905 21.3016 4.31055 24.1376 4.31055C24.6083 4.31055 24.9978 4.46488 25.3061 4.77355C25.6148 5.08188 25.7691 5.47138 25.7691 5.94205V20.923C26.5425 21.2457 27.1763 21.7604 27.6706 22.467C28.1653 23.1737 28.4126 23.9704 28.4126 24.857C28.4126 26.0337 27.9936 27.0409 27.1556 27.8785C26.3176 28.7165 25.3101 29.1355 24.1331 29.1355C22.9565 29.1355 21.9505 28.7165 21.1151 27.8785C20.2801 27.0409 19.8626 26.0337 19.8626 24.857C19.8626 23.9704 20.11 23.1737 20.6046 22.467C21.099 21.7604 21.7328 21.2452 22.5061 20.9215V15.865C20.3315 16.2477 18.5378 17.2719 17.1251 18.9375C15.7125 20.6035 15.0061 22.576 15.0061 24.855C15.0061 27.4 15.8926 29.5592 17.6656 31.3325C19.4383 33.1055 21.5951 33.992 24.1361 33.992C26.6771 33.992 28.8345 33.1055 30.6081 31.3325C32.3821 29.5592 33.2691 27.4019 33.2691 24.8605C33.2691 23.7939 33.0985 22.7945 32.7571 21.8625C32.4155 20.9302 31.9481 20.0795 31.3551 19.3105C31.0805 18.9452 30.9411 18.53 30.9371 18.065C30.9331 17.5997 31.0961 17.202 31.4261 16.872C31.7518 16.5464 32.141 16.3919 32.5936 16.4085C33.0463 16.4252 33.4178 16.612 33.7081 16.969C34.5908 18.0597 35.2861 19.2644 35.7941 20.583C36.3021 21.9017 36.5561 23.3284 36.5561 24.863C36.5561 28.3157 35.3501 31.2462 32.9381 33.6545C30.5258 36.0629 27.5928 37.2671 24.1391 37.2671C20.6851 37.2671 17.7536 36.0629 15.3446 33.6545C12.9356 31.2462 11.7311 28.315 11.7311 24.861C11.7311 21.6674 12.757 18.911 14.8086 16.592C16.8606 14.2734 19.4265 12.9147 22.5061 12.516V7.65955C18.0915 8.05788 14.3806 9.89371 11.3736 13.167C8.36631 16.44 6.86265 20.3369 6.86265 24.8575C6.86265 29.6645 8.54148 33.7461 11.8991 37.1021C15.2571 40.4577 19.3376 42.1356 24.1406 42.1356C28.9436 42.1356 33.0231 40.4569 36.3792 37.0996C39.7348 33.7426 41.4126 29.6629 41.4126 24.8605C41.4126 22.6779 41.046 20.6285 40.3126 18.7125C39.5793 16.7969 38.546 15.081 37.2126 13.565C36.8886 13.1917 36.7203 12.7722 36.7077 12.3065C36.695 11.8412 36.8506 11.4469 37.1746 11.1235C37.4986 10.7995 37.8972 10.6479 38.3702 10.6685C38.8435 10.6892 39.2293 10.8782 39.5276 11.2355C41.1436 13.0755 42.4077 15.1434 43.3197 17.439C44.2317 19.7347 44.6877 22.2085 44.6877 24.8605C44.6877 27.6965 44.1492 30.3655 43.0722 32.8676C41.9948 35.3696 40.5298 37.547 38.6771 39.4C36.8241 41.2527 34.6463 42.7177 32.1436 43.7951C29.641 44.8721 26.9713 45.4106 24.1346 45.4106Z" fill="#352E5B"/>
</svg>
